<svg id="visual" viewBox="0 0 900 600" width="900" height="600" xmlns="http://www.w3.org/2000/svg" xmlns:xlink="http://www.w3.org/1999/xlink" version="1.1"><rect x="0" y="0" width="900" height="600" fill="#495057"></rect><path d="M0 87L21.5 88.8C43 90.7 86 94.3 128.8 93.5C171.7 92.7 214.3 87.3 257.2 87.8C300 88.3 343 94.7 385.8 95.3C428.7 96 471.3 91 514.2 87.2C557 83.3 600 80.7 642.8 83.3C685.7 86 728.3 94 771.2 96.8C814 99.7 857 97.3 878.5 96.2L900 95L900 0L878.5 0C857 0 814 0 771.2 0C728.3 0 685.7 0 642.8 0C600 0 557 0 514.2 0C471.3 0 428.7 0 385.8 0C343 0 300 0 257.2 0C214.3 0 171.7 0 128.8 0C86 0 43 0 21.5 0L0 0Z" fill="#de2a2a"></path><path d="M0 64L21.5 63.2C43 62.3 86 60.7 128.8 57.5C171.7 54.3 214.3 49.7 257.2 43.2C300 36.7 343 28.3 385.8 28.7C428.7 29 471.3 38 514.2 45.3C557 52.7 600 58.3 642.8 57.7C685.7 57 728.3 50 771.2 46.5C814 43 857 43 878.5 43L900 43L900 0L878.5 0C857 0 814 0 771.2 0C728.3 0 685.7 0 642.8 0C600 0 557 0 514.2 0C471.3 0 428.7 0 385.8 0C343 0 300 0 257.2 0C214.3 0 171.7 0 128.8 0C86 0 43 0 21.5 0L0 0Z" fill="#212529"></path></svg>